<svg xmlns="http://www.w3.org/2000/svg" viewBox="0 0 984 553.23">
  <defs>
    <style>
      .cls-1 {
        fill: #fff;
      }

      .cls-2 {
        fill: #003449;
      }

      .cls-3 {
        fill: #017301;
      }

      .cls-4 {
        fill: #1c537c;
      }

      .cls-5 {
        fill: #a6ce28;
        stroke: #989b19;
        stroke-width: 2px;
      }

      .cls-5, .cls-6 {
        stroke-miterlimit: 10;
      }

      .cls-6 {
        fill: #af9f8c;
        stroke: #7c7062;
        stroke-width: 1px;
      }

      .cls-7 {
        fill: #60574d;
      }
    </style>
  </defs>
  <title>chem-pollute</title>
  <g id="app">
    <g>
      <rect class="cls-1" x="3" y="3" width="978" height="547.23"/>
      <path class="cls-2" d="M1169,168.05V709.28H197V168.05h972m6-6H191V715.28h984V162.05Z" transform="translate(-191 -162.05)"/>
    </g>
    <g>
      <rect class="cls-3" x="7.5" y="7.45" width="192" height="539"/>
      <path class="cls-2" d="M389,171V707H200V171H389m3-3H197V710H392V168Z" transform="translate(-191 -162.05)"/>
    </g>
  </g>
  <g id="water">
    <path class="cls-4" d="M391.47,282.71c40.71,15.48,72.76,16.18,94.53,13.94,33.22-3.41,39.91-13.39,72.35-12.77,40.28.77,45.11,16.43,79.64,14.13,33.55-2.25,39.54-17.75,70.25-22.47,37.75-5.81,51.18,27,92.68,24.76,18.34-1,14.5-6.34,38.61-10.2,43.93-7,56.29,9.42,96.41,4.21,33-4.3,28.26-15.9,55.41-16.89,35.4-1.29,40,18.56,86.7,22.68,33.6,3,54.45-5.26,61.48-8.32a117.52,117.52,0,0,0,29.57-18.72l.43,436L392,708.23Z" transform="translate(-191 -162.05)"/>
  </g>
  <g id="Layer_8" data-name="Layer 8">
    <path class="cls-5" d="M392.5,285.5c3.48-8.28,26.07,11.56,71,12,35.41.35,55.12-14.12,92-14,40,.13,51.7,17,88,14,13.56-1.12,17.89-7.6,47-18,11.31-4,31-4.18,40.5-4.5,21.28-.72,27,14.17,45.5,19.5,30.15,8.67,37,.08,47-3,54.55-16.82,73.79,6.76,105,0,25.13-5.44,47.46-17.61,70-16,28,2,31.71,9,46,14,25.37,8.91,60.46,19.09,122.5-13.5l3,47c0,12.45-15.65,10.69-27.47,6.78a69.1,69.1,0,0,0-16-3.28c-17.68-1.44-27.45,11-42,14-41.25,8.46-40.94-40.36-86-40-31.33.25-34.54,26.6-74,33C889,339.25,881.69,354.06,818,373c-32.17,9.57-41.82-44.42-77.5-49.5C709,319,673.25,324.38,657,327c-42.62,6.87-65.41,47.11-93,46-33.28-1.34-50.76-53.49-82.5-55.5-42.4-2.68-87.56,56.26-88,39C393,337,388.17,295.82,392.5,285.5Z" transform="translate(-191 -162.05)"/>
  </g>
  <g id="seafloor">
    <path class="cls-6" d="M393,676a79.28,79.28,0,0,1,34.91-6c11.79.75,13.52,3.74,27.93,6,18.53,2.91,21.61-1.1,45.88,0,22.34,1,21.07,4.46,36.9,4,22.94-.67,24-7.88,42.89-8,21.6-.14,22.39,9.28,49.88,12,15.55,1.54,28.63-.15,42.89-2,23-3,23.35-6,36.9-6,20.05.06,23.66,6.77,42.89,8,18.4,1.18,24.53-4.36,44.88-8,22.39-4,28.12.33,64.84,2a568.58,568.58,0,0,0,93.75-4c38.55-5,39.28-9.68,62.84-9,33.12,1,35.92,10.41,61.84,7,22.56-3,31.26-11.54,55.86-11a107.26,107.26,0,0,1,29.92,5l1,43H393Z" transform="translate(-191 -162.05)"/>
    <circle class="cls-7" cx="249.17" cy="536.77" r="2.14"/>
    <circle class="cls-7" cx="505.15" cy="531.18" r="2.14"/>
    <circle class="cls-7" cx="695.73" cy="540.61" r="1.27"/>
    <circle class="cls-7" cx="230.82" cy="519.8" r="2.82"/>
    <circle class="cls-7" cx="308.32" cy="526.06" r="2.82"/>
    <circle class="cls-7" cx="352.72" cy="534.13" r="2.82"/>
    <circle class="cls-7" cx="386.93" cy="532.74" r="1.67"/>
    <circle class="cls-7" cx="447.52" cy="537.1" r="2.82"/>
    <circle class="cls-7" cx="782.32" cy="539.06" r="2.82"/>
    <circle class="cls-7" cx="876.93" cy="536.74" r="1.67"/>
    <circle class="cls-7" cx="830.52" cy="534.1" r="2.82"/>
    <circle class="cls-7" cx="730.28" cy="528.1" r="2.82"/>
    <circle class="cls-7" cx="927.85" cy="533.7" r="2.82"/>
    <circle class="cls-7" cx="617.97" cy="532.28" r="1.67"/>
    <circle class="cls-7" cx="957.28" cy="513.61" r="1.67"/>
    <circle class="cls-7" cx="656.95" cy="531.1" r="2.82"/>
    <circle class="cls-7" cx="591.73" cy="528.61" r="1.27"/>
    <circle class="cls-7" cx="550.97" cy="532.28" r="1.67"/>
    <circle class="cls-7" cx="577.95" cy="539.1" r="2.82"/>
    <circle class="cls-7" cx="795.97" cy="522.08" r="2.14"/>
  </g>
</svg>
