<?xml version="1.0" encoding="utf-8"?>
<!-- Generator: Adobe Illustrator 22.1.0, SVG Export Plug-In . SVG Version: 6.00 Build 0)  -->
<svg version="1.1" id="Layer_3" xmlns="http://www.w3.org/2000/svg" xmlns:xlink="http://www.w3.org/1999/xlink" x="0px" y="0px"
	 viewBox="0 0 302.7 125.7" style="enable-background:new 0 0 302.7 125.7;" xml:space="preserve">
<style type="text/css">
	.st0{fill:#DD5722;}
	.st1{fill:none;stroke:#000000;stroke-miterlimit:10;}
</style>
<title>lizProjectFish</title>
<path class="st0" d="M4.8,23.3c0,0,49.3,22.3,72.7,21.7c0,0,9.7,0.3,26-5c0,0,34.3-11.7,42-9.7c0,0-6.3-7,0-30.3
	c0,0,14.7,19,50.7,22.5c0,0,91,11.5,105,33.5c0,0,8.7,14.7-15,23.7c0,0-35.7,25.7-103,22.3c0,0-25,15.3-31.8,23.3c0,0-6.5,4-2.9-16
	c0,0,0.5-9.7,5.3-10.7c0,0-46.6-18-75.6-21.3c0,0-15-1-25,3c0,0-47.3,15.3-53.1,12c0,0,1.1-11,11.8-21.7c0,0,10-8.7,1-22.3
	C12.8,48.3,2.5,28,4.8,23.3z"/>
<circle cx="265.3" cy="51.7" r="4.5"/>
<path class="st1" d="M234.1,51.6c0,0-7.3,15,1.3,23"/>
<path class="st1" d="M227.6,51.6c0,0-7.3,15,1.3,23"/>
<path class="st1" d="M221.3,51.6c0,0-7.3,15,1.3,23"/>
</svg>
