<svg id="Layer_1" data-name="Layer 1" xmlns="http://www.w3.org/2000/svg" viewBox="0 0 540.02 659.24">
  <defs>
    <style>
      .cls-1 {
        fill: #0c743b;
      }
    </style>
  </defs>
  <title>lizProjectKelp</title>
  <path class="cls-1" d="M273.77,113.15s36,42.5,22,94c0,0-26,31,0,63.5,0,0,16.5,23-14,56,0,0-4.22,12.4,1.78,28.4,0,0-9.5.75-16,7.75,0,0-19.28-17.15-6.28-49.65,0,0,15.5-25.5-8.5-80.5,0,0-4.5-22,15-35.5C267.77,197.15,294.77,167.65,273.77,113.15Z" transform="translate(-40.45 -113.15)"/>
  <path class="cls-1" d="M349.77,273.65s-30,30.5-26.5,59.5c0,0,2.5,31.5-13.5,33.5,0,0-22,6.5-14,26.5,0,0,8.35,23.3,11.45,26.21a4,4,0,0,1,1,1.43c1.9,4.87,7.67,24.8-14.24,47.36,0,0-5.73,13.9-1.23,14.4,0,0-19.18,2.91-4,26.05a.22.22,0,0,1-.33.28c-5.55-5.36-25.71-27.18-19.65-55.73,0,0,16-28.5,4-55.5,0,0-30.4-36.11,10-45,0,0,15,3.5,20.5-28.5C303.27,324.15,310.27,296.15,349.77,273.65Z" transform="translate(-40.45 -113.15)"/>
  <path class="cls-1" d="M291.27,481.15s28.26-4.57,16.26,32.43l-4.68,5.55a2.11,2.11,0,0,1-.4,1l-2.75,3.68a.39.39,0,0,1-.61,0c-1-1.23-2.69-6.57-9.29-13.62C282.58,502.44,276.52,486.57,291.27,481.15Z" transform="translate(-40.45 -113.15)"/>
  <path class="cls-1" d="M355.1,155.82s10,65,30.34,84c0,0,12,12.33-1.34,52,0,0-1.33,36.33,9.34,67.67,0,0,2,15-9.34,24.66,0,0-27.33,18.34-29,32.34,0,0-14-8.67-19,4.66,0,0-8.33-40.66,25.34-54,0,0,18.66-3,10.66-32.33,0,0-10-31-4.33-36.67,0,0,7-22-10.67-42C357.1,256.15,321.44,219.15,355.1,155.82Z" transform="translate(-40.45 -113.15)"/>
  <path class="cls-1" d="M354.55,413.73s6.55,13.09-4.78,30.09c0,0-16.3,16.45-10.72,0,0,0-2.28-17.55-2.95-22.65C336.1,421.15,338.78,405.45,354.55,413.73Z" transform="translate(-40.45 -113.15)"/>
  <path class="cls-1" d="M409.27,332.65s28.5,46,5.5,95.75c0,0-29.5,42.5-28.5,72.75,0,0-.75,77-13.75,95.5,0,0-7.75,18-22.75,26.5,0,0,8.83-17,8.75-20,0,0,1.42-6.58-2.25-10.5,0,0,12-30.25,7.75-45.25,0,0-18.72-30.44,11.25-67,0,0,8.25-16,6.75-32.53,0,0-4.25-33.25,17.5-54.5C399.52,393.4,418.52,371.15,409.27,332.65Z" transform="translate(-40.45 -113.15)"/>
  <path class="cls-1" d="M294.64,381.07c1,4,41.49,50.7,43.53,50.89l2.31,10.57.66,5s1,4.27,5.26-.93c0,0-12.13,24.6-15.88,29.6,0,0-9.22,14.65-18.75,31.75,0,0-4.19,6.71-8,9.08-.22.14-.4,0-.43-.23-.33-3.28,5.55-20.5,3.93-26.85,0,0,27-38.75,26-42.5,0,0-10.16-21.91-41.47-62.1l2.68-4.17C294.49,381.05,294.08,378.8,294.64,381.07Z" transform="translate(-40.45 -113.15)"/>
  <path class="cls-1" d="M373.44,459.15s-25,3-33.34,53c0,0,2.67,21.67-26.66,28,0,0-16,5-12,25.67,0,0,13.66,25-2.34,38.67,0,0-27.33,22.33-23,37,0,0-7.6,7.33-.46,22.66,0,0,3.46,6.34,1.13,10.67,0,0-32.33-13-22.67-47,0,0,9.34-22,27-31.67,0,0,18.34-3.33,5.67-33,0,0-15.38-20,7.31-36.33l4.87-2.44a2.08,2.08,0,0,0,.75-.63l2.77-3.7a3.45,3.45,0,0,0,.48-.86l.66-1.76a1.65,1.65,0,0,1,.55-.73c1.21-.91,2.68-4.16,5.23-8.9,0,0,6.38-18.77,21.13-31.65C330.52,476.15,354.77,455.49,373.44,459.15Z" transform="translate(-40.45 -113.15)"/>
  <path class="cls-1" d="M294.08,511.3l7.72,14.25-7.72,1.27S291.16,515.66,294.08,511.3Z" transform="translate(-40.45 -113.15)"/>
  <path class="cls-1" d="M303.05,549.42s3.44-6.86,8.5-8.45c0,0,17.47,43.68,22.22,53.18,0,0-4.22,15.15,2.53,22.9,0,0-.28,13.35,5.72,13.35,0,0-43.33,37.25-50.42,45.5l2.92,53.25s-18.41-46.55-17.42-51.58l-.33-2.75s3.75,11.92,9.25,0c0,0,6-9.42,9.75-16.92,0,0,28.65-29.75,35.25-34.75C331,623.15,307.33,553.94,303.05,549.42Z" transform="translate(-40.45 -113.15)"/>
  <path class="cls-1" d="M276.1,641.49s19.22-11.55,21.42,7.41c0,0,7.05,10-.72,11.9,0,0-11.24,15.27-13.19,18,0,0-3.26,4.48-6.45-2.75a3.8,3.8,0,0,1-.18-2.19c.42-2.33-.6-4.64-4.58-11.52C272.4,662.3,268.94,649.57,276.1,641.49Z" transform="translate(-40.45 -113.15)"/>
  <path class="cls-1" d="M333.77,594.15s12.07-14.58,22.5-1.5c0,0,9.28,8.9-6.5,30.5,0,0-4.25,6.5-7.75,7.25,0,0-10,2.9-8.47-12.85C333.55,617.55,329.05,608.83,333.77,594.15Z" transform="translate(-40.45 -113.15)"/>
  <path class="cls-1" d="M470.11,284.79s28.93,47.6,7.08,96.28c0,0-30.52,26.57-9.9,62.73,0,0,12.71,25.29-22.56,53.13,0,0-6.1,11.58-2.67,28.32,0,0-9.5-.74-17,5.16,0,0-16.37-19.93,1.54-50,0,0,19.28-22.77,4.15-80.84,0,0-1-22.43,20.35-32.73C451.09,366.83,482.36,341.9,470.11,284.79Z" transform="translate(-40.45 -113.15)"/>
  <path class="cls-1" d="M513.91,450.25s-31,25.1-32.32,53.42c0,0-2.58,30.58-17,30.28,0,0-20.33,3.18-16.33,23.48,0,0,3.82,23.52,6.11,26.74a3.84,3.84,0,0,1,.7,1.52c.94,4.93,3,24.86-19.7,43.48,0,0-7.15,12.53-3.27,13.64,0,0-17.31.14-7.5,24.44.1.23-.19.43-.33.23-4.06-5.92-18.5-29.65-8.85-56.21,0,0,18.4-25.13,11.93-52.71,0,0-21.28-38.88,15.61-41.8,0,0,12.67,5.44,22.35-24.5C465.35,492.26,475.75,466.36,513.91,450.25Z" transform="translate(-40.45 -113.15)"/>
  <path class="cls-1" d="M399.16,672.77s28.63-.1,11,34.57l-5.48,4.75a2.26,2.26,0,0,1-.55.88l-3.29,3.2a.37.37,0,0,1-.6-.09c-.76-1.36-1.64-6.9-7.06-14.89C387.26,692.45,383.75,675.83,399.16,672.77Z" transform="translate(-40.45 -113.15)"/>
  <path class="cls-1" d="M539.78,357.61s-10.87,65.89,2.51,90.52c0,0,7.55,15.62-17.57,49.83,0,0-12.66,34.7-12.33,68.26,0,0-2.81,15.11-16.62,20.95,0,0-31.74,9.28-37.72,22.29,0,0-10.6-12.69-19.53-1.35,0,0,4.82-41.87,41-44.36,0,0,18.7,2.87,20.29-27.94,0,0,.2-33,7.37-36.77a47.08,47.08,0,0,0,3-43.87S487.9,408.41,539.78,357.61Z" transform="translate(-40.45 -113.15)"/>
  <path class="cls-1" d="M252.33,600.07s-6.56,13.1,4.77,30.1c0,0,16.31,16.45,10.73,0,0,0,2.27-17.54,2.94-22.64C270.77,607.5,268.1,591.8,252.33,600.07Z" transform="translate(-40.45 -113.15)"/>
  <path class="cls-1" d="M210.79,350.55s-28.5,46-5.5,95.75c0,0,29.5,42.5,28.5,72.75,0,0,.75,77,13.75,95.5,0,0,7.75,18,22.75,26.5,0,0-8.83-17-8.75-20,0,0-1.42-6.59,2.25-10.5,0,0-12-30.25-7.75-45.25,0,0,18.72-30.44-11.25-67,0,0-8.25-16-6.75-32.52,0,0,4.25-33.25-17.5-54.5C220.54,411.3,201.54,389.05,210.79,350.55Z" transform="translate(-40.45 -113.15)"/>
  <path class="cls-1" d="M184.52,448.18s36,42.5,22,94c0,0-26,31,0,63.5,0,0,16.5,23-14,56,0,0-4.22,12.39,1.78,28.39,0,0-9.5.75-16,7.75,0,0-19.28-17.14-6.28-49.64,0,0,15.5-25.5-8.5-80.5,0,0-4.5-22,15-35.5C178.52,532.18,205.52,502.68,184.52,448.18Z" transform="translate(-40.45 -113.15)"/>
  <path class="cls-1" d="M223.42,265.72s-30,30.5-26.5,59.5c0,0,2.5,31.5-13.5,33.5,0,0-22,6.5-14,26.5,0,0,8.35,23.29,11.45,26.2a4,4,0,0,1,1,1.43c1.9,4.87,7.67,24.8-14.24,47.37,0,0-5.73,13.89-1.23,14.39,0,0-19.18,2.92-4,26.05a.22.22,0,0,1-.33.29c-5.55-5.37-25.71-27.18-19.65-55.73,0,0,16-28.5,4-55.5,0,0-30.4-36.12,10-45,0,0,15,3.5,20.5-28.5C176.92,316.22,183.92,288.22,223.42,265.72Z" transform="translate(-40.45 -113.15)"/>
  <path class="cls-1" d="M134.13,615.35s28.25-4.57,16.25,32.43l-4.67,5.55a2.22,2.22,0,0,1-.4.95l5.62,3.92a7.41,7.41,0,0,1-3-.09c-1-1.23-8.68-6.71-15.28-13.76C125.43,636.64,119.38,620.77,134.13,615.35Z" transform="translate(-40.45 -113.15)"/>
  <path class="cls-1" d="M42.46,393s11.91,64.67-1.06,89.3c0,0-7.28,15.59,18.35,48.67,0,0,13.2,33.88,13.42,67,0,0,3,14.82,16.91,20.23,0,0,31.84,8.34,38,21,0,0,10.37-12.78,19.48-1.83,0,0-5.49-41.15-41.67-42.68,0,0-18.62,3.3-20.7-27,0,0-.74-32.56-7.95-36,0,0-13.84-18.48-3.73-43.17C73.53,488.42,95.06,441.75,42.46,393Z" transform="translate(-40.45 -113.15)"/>
  <path class="cls-1" d="M88.39,356.42S58.53,401.55,80,452c0,0,28.22,43.36,26.32,73.57,0,0-1.55,77,10.9,95.86,0,0,7.21,18.23,22,27.17,0,0-8.32-17.26-8.15-20.25,0,0-1.22-6.63,2.56-10.43,0,0-11.09-30.59-6.4-45.46,0,0,19.62-29.87-9.25-67.29,0,0-7.77-16.26-5.78-32.7,0,0,5.24-33.11-15.87-55C96.32,417.43,78,394.62,88.39,356.42Z" transform="translate(-40.45 -113.15)"/>
  <path class="cls-1" d="M147,641.14c1,4.05,33.08,46,35.11,46.17l2.32,10.57.66,5s1,4.26,5.26-.94c0,0-12.13,24.61-15.88,29.61,0,0-9.22,14.64-18.75,31.75,0,0-4.19,6.71-8,9.08a.26.26,0,0,1-.43-.23c-.33-3.29,5.55-20.5,3.93-26.85,0,0,27-38.75,26-42.5,0,0-12-17.85-43.31-58l8.55-3.58C142.46,641.06,146.44,638.87,147,641.14Z" transform="translate(-40.45 -113.15)"/>
  <path class="cls-1" d="M170,516.37s-16,9.92-11.4,32.14c0,0,6.18,7.42-12.05,20.15,0,0-9.63,7.54-2.77,14.11,0,0,14.18,4.86,6.31,15.74,0,0-13.64,18.2-7.77,22.34,0,0-3.57,5.49,4.29,8.91,0,0,3.6,1.23,2.93,3.72,0,0-24.16,6.31-24.64-10.19a43.15,43.15,0,0,1,11.52-21.69s11.52-7.71-2.93-14.72c0,0-14.3-2.32-2.53-16.58l2.75-2.65a1.84,1.84,0,0,0,.37-.5l1.09-2.4a1.64,1.64,0,0,0,.14-.5l.08-.91a1,1,0,0,1,.22-.48c.62-.77.94-2.54,1.67-5.27,0,0,.43-9.47,7.62-19.61C144.85,538,156.78,521.5,170,516.37Z" transform="translate(-40.45 -113.15)"/>
  <path class="cls-1" d="M156.7,482.7s3.44-6.86,8.5-8.45c0,0,17.47,43.69,22.22,53.19,0,0-4.22,15.14,2.53,22.89,0,0-.28,13.36,5.72,13.36,0,0-43.33,37.25-50.42,45.5l2.92,53.25s-18.41-46.55-17.42-51.59l-.33-2.75s3.75,11.92,9.25,0c0,0,6-9.41,9.75-16.91,0,0,28.65-29.76,35.25-34.75C184.67,556.44,161,487.22,156.7,482.7Z" transform="translate(-40.45 -113.15)"/>
  <path class="cls-1" d="M174.34,676.63s19.22-11.54,21.42,7.42c0,0,7.05,10-.73,11.89,0,0-11.23,15.28-13.19,18,0,0-3.25,4.47-6.45-2.75a3.83,3.83,0,0,1-.17-2.2c.42-2.33-.6-4.63-4.59-11.52C170.63,697.44,167.17,684.72,174.34,676.63Z" transform="translate(-40.45 -113.15)"/>
  <path class="cls-1" d="M142,476.7s1.85-18.84,17.82-13.83c0,0,12.66,2.18,11.67,28.92,0,0,.11,7.76-2.37,10.34,0,0-6.65,8-14.22-5.92C154.93,496.21,146.33,491.51,142,476.7Z" transform="translate(-40.45 -113.15)"/>
  <path class="cls-1" d="M127.41,277.9s35,41.28,19.61,93.88c0,0-22.89,46.4-17.42,76.17,0,0,10.65,76.26.53,96.48,0,0-5,19-18.58,29.58,0,0,6.22-18.12,5.7-21.08,0,0,.42-6.72-3.78-10,0,0,7.39-31.69,1-45.9,0,0-23-27.34,1.21-67.91,0,0,5.79-17.06,1.86-33.16,0,0-9.12-32.25,9.25-56.49C126.76,339.42,142.26,314.61,127.41,277.9Z" transform="translate(-40.45 -113.15)"/>
  <path class="cls-1" d="M427.74,668.43s25.12,1.61,42.44-46c0,0,1.34-21.79,31.33-22.66,0,0,16.65-2,16.49-23,0,0-8.87-27.07,9.35-37.59,0,0,30.95-17,29.37-32.18,0,0,8.81-5.82,4.6-22.2,0,0-2.26-6.86.83-10.69,0,0,29.42,18.68,13.71,50.34,0,0-13.2,19.93-32.33,26.21,0,0-18.64-.07-11.6,31.41,0,0,11.47,22.47-13.82,34.39l-5.23,1.51a2,2,0,0,0-.85.48l-3.4,3.13a3.13,3.13,0,0,0-.63.77l-1,1.6a1.61,1.61,0,0,1-.68.61c-1.35.68-3.39,3.61-6.77,7.81,0,0-9.69,17.29-26.54,27.25C473,659.55,445.42,675.44,427.74,668.43Z" transform="translate(-40.45 -113.15)"/>
  <path class="cls-1" d="M438.57,571.19s4.46-6.24,9.71-7c0,0,10.45,45.88,13.66,56,0,0-6.53,14.3-1.07,23,0,0-2.36,13.15,3.57,14.08,0,0-48.61,30-56.9,37.09l-5.42,53S391.2,698.54,393,693.72l.1-2.76s1.85,12.35,9.14,1.44c0,0,7.39-8.37,12.27-15.19,0,0,32.94-24.93,40.23-28.83C454.7,648.38,442.09,576.31,438.57,571.19Z" transform="translate(-40.45 -113.15)"/>
  <path class="cls-1" d="M424.44,637.86s20.79-8.41,20,10.66c0,0,5.41,11-2.57,11.63,0,0-13.48,13.34-15.82,15.69,0,0-3.92,3.92-5.95-3.72a3.82,3.82,0,0,1,.17-2.19c.78-2.24.13-4.67-2.73-12.1C417.54,657.83,416.1,644.72,424.44,637.86Z" transform="translate(-40.45 -113.15)"/>
  <path class="cls-1" d="M457.92,624.59s14.2-12.53,22.46,2c0,0,7.78,10.23-11.17,29.12,0,0-5.21,5.75-8.79,5.95,0,0-10.3,1.3-6.36-14C454.06,647.66,451,638.35,457.92,624.59Z" transform="translate(-40.45 -113.15)"/>
</svg>
