<svg xmlns="http://www.w3.org/2000/svg" viewBox="0 0 984 553.23">
  <defs>
    <style>
      .cls-1 {
        fill: #fff;
      }

      .cls-2 {
        fill: #003449;
      }

      .cls-3 {
        fill: #017301;
      }

      .cls-4 {
        fill: #039fc2;
        stroke: #003449;
        stroke-width: 2.07px;
      }

      .cls-4, .cls-5 {
        stroke-miterlimit: 10;
      }

      .cls-5 {
        fill: #af9f8c;
        stroke: #7c7062;
        stroke-width: 1px;
      }

      .cls-6 {
        fill: #60574d;
      }
    </style>
  </defs>
  <title>main2</title>
  <g id="app">
    <g>
      <rect class="cls-1" x="3" y="3" width="978" height="547.23"/>
      <path class="cls-2" d="M1169,168.05V709.28H197V168.05h972m6-6H191V715.28h984V162.05Z" transform="translate(-191 -162.05)"/>
    </g>
    <g>
      <rect class="cls-3" x="7.5" y="7.45" width="192" height="539"/>
      <path class="cls-2" d="M389,171V707H200V171H389m3-3H197V710H392V168Z" transform="translate(-191 -162.05)"/>
    </g>
  </g>
  <g id="water">
    <path class="cls-4" d="M391.47,282.71c40.71,15.48,72.76,16.18,94.53,13.94,33.22-3.41,39.91-13.39,72.35-12.77,40.28.77,45.11,16.43,79.64,14.13,33.55-2.25,39.54-17.75,70.25-22.47,37.75-5.81,51.18,27,92.68,24.76,18.34-1,14.5-6.34,38.61-10.2,43.93-7,56.29,9.42,96.41,4.21,33-4.3,28.26-15.9,55.41-16.89,35.4-1.29,40,18.56,86.7,22.68,33.6,3,54.45-5.26,61.48-8.32a117.52,117.52,0,0,0,29.57-18.72l.43,436L392,708.23Z" transform="translate(-191 -162.05)"/>
  </g>
  <g id="seafloor">
    <path class="cls-5" d="M393,676a79.28,79.28,0,0,1,34.91-6c11.79.75,13.52,3.74,27.93,6,18.53,2.91,21.61-1.1,45.88,0,22.34,1,21.07,4.46,36.9,4,22.94-.67,24-7.88,42.89-8,21.6-.14,22.39,9.28,49.88,12,15.55,1.54,28.63-.15,42.89-2,23-3,23.35-6,36.9-6,20.05.06,23.66,6.77,42.89,8,18.4,1.18,24.53-4.36,44.88-8,22.39-4,28.12.33,64.84,2a568.58,568.58,0,0,0,93.75-4c38.55-5,39.28-9.68,62.84-9,33.12,1,35.92,10.41,61.84,7,22.56-3,31.26-11.54,55.86-11a107.26,107.26,0,0,1,29.92,5l1,43H393Z" transform="translate(-191 -162.05)"/>
    <circle class="cls-6" cx="249.17" cy="536.77" r="2.14"/>
    <circle class="cls-6" cx="505.15" cy="531.18" r="2.14"/>
    <circle class="cls-6" cx="695.73" cy="540.61" r="1.27"/>
    <circle class="cls-6" cx="230.82" cy="519.8" r="2.82"/>
    <circle class="cls-6" cx="308.32" cy="526.06" r="2.82"/>
    <circle class="cls-6" cx="352.72" cy="534.13" r="2.82"/>
    <circle class="cls-6" cx="386.93" cy="532.74" r="1.67"/>
    <circle class="cls-6" cx="447.52" cy="537.1" r="2.82"/>
    <circle class="cls-6" cx="782.32" cy="539.06" r="2.82"/>
    <circle class="cls-6" cx="876.93" cy="536.74" r="1.67"/>
    <circle class="cls-6" cx="830.52" cy="534.1" r="2.82"/>
    <circle class="cls-6" cx="730.28" cy="528.1" r="2.82"/>
    <circle class="cls-6" cx="927.85" cy="533.7" r="2.82"/>
    <circle class="cls-6" cx="617.97" cy="532.28" r="1.67"/>
    <circle class="cls-6" cx="957.28" cy="513.61" r="1.67"/>
    <circle class="cls-6" cx="656.95" cy="531.1" r="2.82"/>
    <circle class="cls-6" cx="591.73" cy="528.61" r="1.27"/>
    <circle class="cls-6" cx="550.97" cy="532.28" r="1.67"/>
    <circle class="cls-6" cx="577.95" cy="539.1" r="2.82"/>
    <circle class="cls-6" cx="795.97" cy="522.08" r="2.14"/>
  </g>
</svg>
