<svg xmlns="http://www.w3.org/2000/svg" viewBox="0 0 789 553.28">
  <defs>
    <style>
      .cls-1 {
        fill: #fff;
      }

      .cls-2 {
        fill: #003449;
      }

      .cls-3 {
        fill: #039fc2;
        stroke: #003449;
        stroke-width: 2.07px;
      }

      .cls-3, .cls-4 {
        stroke-miterlimit: 10;
      }

      .cls-4 {
        fill: #af9f8c;
        stroke: #7c7062;
        stroke-width: 1px;
      }

      .cls-5 {
        fill: #60574d;
      }
    </style>
  </defs>
  <title>main-template</title>
  <g id="white_background" data-name="white background">
    <g>
      <rect class="cls-1" x="2.69" y="2.69" width="783.63" height="547.63"/>
      <path class="cls-2" d="M1169.63,167.37V709.63H391.37V167.37h778.26M1175,162H386V715h789V162Z" transform="translate(-386 -162)"/>
    </g>
  </g>
  <g id="app">
    <g>
      <rect class="cls-1" x="2.69" y="2.74" width="783.63" height="547.86"/>
      <path class="cls-2" d="M1169.63,167.43V709.91H391.37V167.43h778.26m5.37-5.38H386V715.28h789V162.05Z" transform="translate(-386 -162)"/>
    </g>
  </g>
  <g id="water">
    <path class="cls-3" d="M391.47,282.71c40.71,15.48,72.76,16.18,94.53,13.94,33.22-3.41,39.91-13.39,72.35-12.77,40.28.77,45.11,16.43,79.64,14.13,33.55-2.25,39.54-17.75,70.25-22.47,37.75-5.81,51.18,27,92.68,24.76,18.34-1,14.5-6.34,38.61-10.2,43.93-7,56.29,9.42,96.41,4.21,33-4.3,28.26-15.9,55.41-16.89,35.4-1.29,40,18.56,86.7,22.68,33.6,3,54.45-5.26,61.48-8.32a117.52,117.52,0,0,0,29.57-18.72l.43,436L392,708.23Z" transform="translate(-386 -162)"/>
  </g>
  <g id="seafloor">
    <path class="cls-4" d="M393,676a79.28,79.28,0,0,1,34.91-6c11.79.75,13.52,3.74,27.93,6,18.53,2.91,21.61-1.1,45.88,0,22.34,1,21.07,4.46,36.9,4,22.94-.67,24-7.88,42.89-8,21.6-.14,22.39,9.28,49.88,12,15.55,1.54,28.63-.15,42.89-2,23-3,23.35-6,36.9-6,20.05.06,23.66,6.77,42.89,8,18.4,1.18,24.53-4.36,44.88-8,22.39-4,28.12.33,64.84,2a568.58,568.58,0,0,0,93.75-4c38.55-5,39.28-9.68,62.84-9,33.12,1,35.92,10.41,61.84,7,22.56-3,31.26-11.54,55.86-11a107.26,107.26,0,0,1,29.92,5l1,43H393Z" transform="translate(-386 -162)"/>
    <circle class="cls-5" cx="54.17" cy="536.83" r="2.14"/>
    <circle class="cls-5" cx="310.15" cy="531.23" r="2.14"/>
    <circle class="cls-5" cx="500.73" cy="540.67" r="1.27"/>
    <circle class="cls-5" cx="35.82" cy="519.85" r="2.82"/>
    <circle class="cls-5" cx="113.32" cy="526.12" r="2.82"/>
    <circle class="cls-5" cx="157.72" cy="534.18" r="2.82"/>
    <circle class="cls-5" cx="191.93" cy="532.79" r="1.67"/>
    <circle class="cls-5" cx="252.52" cy="537.15" r="2.82"/>
    <circle class="cls-5" cx="587.32" cy="539.12" r="2.82"/>
    <circle class="cls-5" cx="681.93" cy="536.79" r="1.67"/>
    <circle class="cls-5" cx="635.52" cy="534.15" r="2.82"/>
    <circle class="cls-5" cx="535.28" cy="528.15" r="2.82"/>
    <circle class="cls-5" cx="732.85" cy="533.75" r="2.82"/>
    <circle class="cls-5" cx="422.97" cy="532.33" r="1.67"/>
    <circle class="cls-5" cx="762.28" cy="513.67" r="1.67"/>
    <circle class="cls-5" cx="461.95" cy="531.15" r="2.82"/>
    <circle class="cls-5" cx="396.73" cy="528.67" r="1.27"/>
    <circle class="cls-5" cx="355.97" cy="532.33" r="1.67"/>
    <circle class="cls-5" cx="382.95" cy="539.15" r="2.82"/>
    <circle class="cls-5" cx="600.97" cy="522.14" r="2.14"/>
  </g>
</svg>
