<svg id="barrel" xmlns="http://www.w3.org/2000/svg" viewBox="0 0 201.76 367.22">
  <defs>
    <style>
      .cls-1, .cls-2 {
        fill: #999;
      }

      .cls-1, .cls-4, .cls-5, .cls-6 {
        stroke: #313335;
      }

      .cls-1, .cls-6 {
        stroke-miterlimit: 10;
      }

      .cls-1 {
        stroke-width: 3px;
      }

      .cls-3 {
        fill: #313335;
      }

      .cls-4, .cls-5 {
        fill: none;
        stroke-linecap: round;
        stroke-linejoin: round;
      }

      .cls-4 {
        stroke-width: 8.63px;
      }

      .cls-5 {
        stroke-width: 8.76px;
      }

      .cls-6 {
        fill: #333;
        stroke-width: 1.33px;
      }
    </style>
  </defs>
  <title>oil</title>
  <path class="cls-1" d="M368.5,205V510.5s106,48,193-1V207.67Z" transform="translate(-364.12 -174)"/>
  <g>
    <ellipse class="cls-2" cx="100.88" cy="28" rx="96.5" ry="26.5"/>
    <path class="cls-3" d="M564.39,202a14,14,0,0,1-.24,2.24,10,10,0,0,1-.66,2.09l-.44,1c-.15.32-.35.59-.52.88l-.55.87c-.2.27-.41.51-.62.77a25.26,25.26,0,0,1-5.53,4.93A63.38,63.38,0,0,1,543.52,221a153.83,153.83,0,0,1-25.79,7.11q-6.54,1.24-13.11,2.13c-4.38.59-8.77,1.12-13.18,1.45-8.8.76-17.62,1-26.44,1s-17.63-.43-26.43-1.19S421,229.55,412.3,227.9a154.2,154.2,0,0,1-25.78-7.05,63,63,0,0,1-12.29-6.19,26,26,0,0,1-5.5-4.91c-.2-.26-.41-.5-.6-.77l-.55-.85c-.17-.3-.37-.56-.52-.88l-.44-1a11.36,11.36,0,0,1-.65-2.07,14.78,14.78,0,0,1-.23-2.21,14.38,14.38,0,0,1,.29-2.2,9.82,9.82,0,0,1,.7-2l.45-.94c.16-.31.36-.57.54-.86l.56-.83c.2-.26.42-.49.62-.74a25.34,25.34,0,0,1,5.58-4.68A61.72,61.72,0,0,1,386.83,184a158.37,158.37,0,0,1,25.77-6.18A326.49,326.49,0,0,1,465,174c8.75.05,17.51.3,26.25.91s17.47,1.46,26.16,2.85a150.64,150.64,0,0,1,25.81,6.09,62.31,62.31,0,0,1,12.38,5.74,25.15,25.15,0,0,1,5.6,4.72c.21.25.43.48.63.74l.56.84c.18.29.39.55.55.87l.46,1a11.09,11.09,0,0,1,.7,2.06A13.74,13.74,0,0,1,564.39,202Zm-5.78,0a6.76,6.76,0,0,0-1.7-4.14,20,20,0,0,0-4.26-3.8,57.63,57.63,0,0,0-11.13-5.58,150.13,150.13,0,0,0-24.79-6.85A258,258,0,0,0,491,178.07c-8.64-.76-17.32-1.07-26-1.07a289.87,289.87,0,0,0-51.74,4.58,142.63,142.63,0,0,0-24.83,6.75A57.08,57.08,0,0,0,377.28,194a19.47,19.47,0,0,0-4.29,3.82,6.82,6.82,0,0,0-1.73,4.23,6.89,6.89,0,0,0,1.9,4.09,20.09,20.09,0,0,0,4.36,3.59,56.53,56.53,0,0,0,11.22,5.15,148.13,148.13,0,0,0,24.83,5.88c8.46,1.39,17,2.29,25.61,2.85s17.21.83,25.82.79,17.23-.36,25.81-1,17.14-1.44,25.59-2.83a148,148,0,0,0,24.83-5.82,57.06,57.06,0,0,0,11.18-5.15,19.37,19.37,0,0,0,4.33-3.57A6.78,6.78,0,0,0,558.61,202Z" transform="translate(-364.12 -174)"/>
  </g>
  <path class="cls-4" d="M372,300.5c2.3,4,95.88,48.21,186,0" transform="translate(-364.12 -174)"/>
  <path class="cls-4" d="M372,402.5c2.3,4,95.88,48.21,186,0" transform="translate(-364.12 -174)"/>
  <path class="cls-5" d="M368.5,514.5c2.37,4,100,48.21,193,0" transform="translate(-364.12 -174)"/>
  <ellipse class="cls-6" cx="44.38" cy="22.83" rx="10" ry="3.33"/>
</svg>
