<svg id="tank" xmlns="http://www.w3.org/2000/svg" viewBox="0 0 514.28 426.62">
  <defs>
    <style>
      .cls-1, .cls-5 {
        fill: #999;
      }

      .cls-2, .cls-6 {
        fill: #313335;
      }

      .cls-3, .cls-4 {
        fill: none;
      }

      .cls-3, .cls-4, .cls-5, .cls-6 {
        stroke: #313335;
        stroke-miterlimit: 10;
      }

      .cls-4 {
        stroke-width: 1.06px;
      }

      .cls-7 {
        font-size: 72px;
        fill: #fff;
        font-family: Nunito-Regular, Nunito;
      }
    </style>
  </defs>
  <title>tank</title>
  <g>
    <path class="cls-1" d="M306.5,242.5s-70-9-75,80,17,116,27,123,403,6,424,0c0,0,52-5,60-99s-62-105-90-104S306.5,242.5,306.5,242.5Z" transform="translate(-229.85 -222.95)"/>
    <path class="cls-2" d="M306.46,243.14a67.42,67.42,0,0,0-20.86,1.57,64.5,64.5,0,0,0-10,3.12,59.16,59.16,0,0,0-9.34,4.7,62.3,62.3,0,0,0-8.42,6.2,64.59,64.59,0,0,0-7.18,7.61,72.57,72.57,0,0,0-10.43,18.09,97.19,97.19,0,0,0-5.73,20.19l-.48,2.59-.35,2.61c-.22,1.74-.49,3.47-.67,5.22l-.41,5.25c-.06.88-.16,1.75-.19,2.63l-.1,2.64-.4,10.58c0,.88-.07,1.76-.09,2.64V352c0,1.76.11,3.52.16,5.28l.19,5.28c.08,1.76.09,3.52.26,5.27.86,14.05,2.71,28.09,6.55,41.58l1.49,5,1.8,4.93c.55,1.67,1.33,3.23,2,4.83.36.8.7,1.6,1.07,2.39l1.22,2.3,1.23,2.31,1.39,2.19c.48.72.9,1.49,1.43,2.17l1.56,2.07a20.86,20.86,0,0,0,1.65,2,24,24,0,0,0,1.76,1.87c.63.57,1.23,1.18,1.88,1.73l1,.77.5.39a1.33,1.33,0,0,0,.23.17l.1.06a14.69,14.69,0,0,0,2.31.53c.85.13,1.71.25,2.58.35,1.73.2,3.48.35,5.23.49,3.5.27,7,.48,10.55.65,7,.36,14.1.61,21.15.82,14.12.43,28.25.69,42.37.91,56.52.81,113,.71,169.57.45q42.39-.21,84.77-.87c14.13-.25,28.25-.54,42.37-1,7.06-.22,14.12-.47,21.16-.81,3.53-.17,7-.36,10.56-.61,1.75-.13,3.5-.27,5.24-.44a37.66,37.66,0,0,0,5-.76l.11,0,.11,0a30.34,30.34,0,0,0,4.57-1c1.52-.48,3-1,4.5-1.62a53.92,53.92,0,0,0,8.5-4.49,58.77,58.77,0,0,0,7.67-5.84c1.24-1,2.35-2.21,3.52-3.32s2.22-2.34,3.26-3.58c8.4-9.85,14.26-21.69,18.44-34a185.14,185.14,0,0,0,8-38.2l.5-4.87c.19-1.62.23-3.25.35-4.87l.29-4.88.06-4.89c.13-3.26-.14-6.5-.24-9.75-.07-1.63-.29-3.24-.43-4.86s-.29-3.24-.58-4.84L740,308.5,739,303.75c-.3-1.6-.82-3.14-1.27-4.7l-.68-2.33c-.23-.78-.55-1.53-.82-2.29a74.52,74.52,0,0,0-8.68-17.32,72,72,0,0,0-29.36-24.73,100.47,100.47,0,0,0-37.69-9c-3.26-.2-6.49-.1-9.77,0s-6.57.13-9.85.14l-19.67.1c-52.45.12-104.9-.09-157.34-.19Zm.08-1.28,78.63.33,78.67.17,78.67,0,78.66-.25,19.66-.17c3.28,0,6.55-.1,9.82-.17s6.6-.18,9.89,0a102.09,102.09,0,0,1,38.36,9.06,73.77,73.77,0,0,1,30.15,25.24,75.88,75.88,0,0,1,9,17.72c.28.78.61,1.54.85,2.33l.7,2.38c.47,1.59,1,3.17,1.32,4.79l1.09,4.84.8,4.9c.3,1.63.44,3.28.61,4.92s.37,3.29.45,4.93c.11,3.3.39,6.6.28,9.9l-.05,5-.28,4.94c-.12,1.64-.16,3.29-.34,4.93L743,352.5a187,187,0,0,1-8,38.67c-4.22,12.49-10.16,24.6-18.79,34.77-1.07,1.28-2.23,2.48-3.36,3.7s-2.34,2.37-3.62,3.44a61.82,61.82,0,0,1-7.94,6.08,56.44,56.44,0,0,1-8.86,4.7,39.84,39.84,0,0,1-9.76,2.83l.22,0a23.43,23.43,0,0,1-2.77.52c-.89.13-1.78.23-2.67.32-1.78.19-3.55.33-5.32.46-3.54.27-7.07.46-10.61.64-7.06.36-14.13.63-21.2.86-14.13.47-28.27.79-42.4,1.07q-42.4.81-84.81,1.07c-28.27.24-56.54.22-84.81.11s-56.54-.35-84.81-.83c-14.13-.24-28.27-.54-42.4-1-7.07-.23-14.14-.5-21.21-.87-3.53-.19-7.07-.4-10.61-.69-1.77-.14-3.54-.3-5.31-.51-.89-.1-1.79-.22-2.68-.37a14.23,14.23,0,0,1-2.84-.69,3.67,3.67,0,0,1-.48-.25,3.4,3.4,0,0,1-.3-.22l-.55-.43L256,445c-.7-.59-1.34-1.24-2-1.85s-1.23-1.34-1.86-2a23.09,23.09,0,0,1-1.74-2.08l-1.62-2.17c-.55-.72-1-1.51-1.48-2.26l-1.43-2.29L244.55,430l-1.25-2.38c-.38-.81-.73-1.63-1.09-2.45-.7-1.65-1.49-3.26-2.05-5l-1.81-5L236.86,410c-3.85-13.72-5.64-27.9-6.45-42-.17-1.77-.17-3.54-.24-5.31l-.18-5.32c0-1.77-.16-3.54-.13-5.31l0-5.31,0-5.31v-2.66c0-.89.07-1.77.1-2.65l.44-10.62.12-2.65c0-.88.13-1.77.2-2.65l.44-5.31c.19-1.77.47-3.53.7-5.29l.36-2.64.5-2.62a99.71,99.71,0,0,1,5.91-20.5,74.41,74.41,0,0,1,10.75-18.44,66.11,66.11,0,0,1,7.38-7.77,64.27,64.27,0,0,1,8.65-6.32,60.71,60.71,0,0,1,9.59-4.76,65.58,65.58,0,0,1,10.22-3.15A69,69,0,0,1,306.54,241.86Z" transform="translate(-229.85 -222.95)"/>
  </g>
  <path class="cls-3" d="M621.5,242.5s40,66,11,180" transform="translate(-229.85 -222.95)"/>
  <path class="cls-3" d="M346.05,242.5s-37.55,59-8.55,173" transform="translate(-229.85 -222.95)"/>
  <path class="cls-4" d="M276.5,249s-25,116.34,0,198" transform="translate(-229.85 -222.95)"/>
  <path class="cls-4" d="M669.5,243.5s59,81,13,202" transform="translate(-229.85 -222.95)"/>
  <polygon class="cls-5" points="89.65 192.55 125.65 192.55 121.65 296.55 94.65 296.55 89.65 192.55"/>
  <polygon class="cls-6" points="127.65 270.55 122.65 285.55 124.33 226.82 129.9 226.89 127.65 270.55"/>
  <polygon class="cls-5" points="426.9 199.55 390.9 199.55 394.9 303.55 421.9 303.55 426.9 199.55"/>
  <polygon class="cls-6" points="386.65 278.55 394.9 301.55 392.22 226.55 382.65 226.55 386.65 278.55"/>
  <path class="cls-5" d="M532.5,232.5v10h-53v-10s-17-1-2-6,54-3,59,0S532.5,232.5,532.5,232.5Z" transform="translate(-229.85 -222.95)"/>
  <path id="p" d="M490.17,345.27a6.75,6.75,0,0,0-4-8.68,7.41,7.41,0,0,0-1.23-.32v-3.5A23.6,23.6,0,0,0,488.35,286v-1.26a33.72,33.72,0,0,1,28.92,37.92c0,.34-.1.69-.15,1a33.71,33.71,0,0,1,19.72,43.42c-.12.33-.25.65-.38,1l-1.09-.63A23.6,23.6,0,0,0,493.2,347Zm7.68-19.95a22.49,22.49,0,0,0-28,0,21.17,21.17,0,0,1-4.89-6.16,30.36,30.36,0,0,1,37.78,0A22.48,22.48,0,0,1,497.85,325.32Z" transform="translate(-229.85 -222.95)"/>
  <path id="p-2" data-name="p" d="M478.65,347.21a6.74,6.74,0,0,0,9.5.9,7,7,0,0,0,.9-.9l3,1.75a23.61,23.61,0,0,0,38.81,26.3l1.08.63a33.72,33.72,0,0,1-47.3,6.09l-.81-.65a33.72,33.72,0,0,1-47.47-4.63l-.65-.81,1.09-.63A23.61,23.61,0,0,0,475.63,349Zm13.43,16.63a22.48,22.48,0,0,0,14-24.25,21.24,21.24,0,0,1,7.79-1.15A30.35,30.35,0,0,1,495,371.15,22.47,22.47,0,0,1,492.08,363.84Z" transform="translate(-229.85 -222.95)"/>
  <path id="p-3" data-name="p" d="M482.72,336.27A6.74,6.74,0,0,0,477.2,344a6.57,6.57,0,0,0,.33,1.23l-3,1.74a23.61,23.61,0,0,0-42.18,20.46l-1.08.63a33.73,33.73,0,0,1,18.37-44l1-.38a33.72,33.72,0,0,1,27.75-38.79l1-.16V286a23.6,23.6,0,0,0,3.37,46.75Zm-21.11,3.32a22.49,22.49,0,0,0,14,24.25,21.31,21.31,0,0,1-2.89,7.31,30.34,30.34,0,0,1-18.89-32.71A22.33,22.33,0,0,1,461.61,339.59Z" transform="translate(-229.85 -222.95)"/>
  <text class="cls-7" transform="translate(83.25 402.75)">Chemicals</text>
</svg>
