<svg xmlns="http://www.w3.org/2000/svg" viewBox="0 0 984 553.23">
  <defs>
    <style>
      .cls-1 {
        fill: #fff;
      }

      .cls-2 {
        fill: #003449;
      }

      .cls-3 {
        fill: #017301;
      }

      .cls-4 {
        fill: #34935d;
        stroke: #003449;
        stroke-width: 2.07px;
      }

      .cls-4, .cls-5 {
        stroke-miterlimit: 10;
      }

      .cls-5 {
        fill: #af9f8c;
        stroke: #7c7062;
        stroke-width: 1px;
      }

      .cls-6 {
        fill: #60574d;
      }

      .cls-7 {
        fill: #c2c1c0;
        opacity: 0.5;
        isolation: isolate;
      }

      .cls-8 {
        fill: #00a0c3;
      }
    </style>
  </defs>
  <title>trash-pollute</title>
  <g id="app">
    <g>
      <rect class="cls-1" x="3" y="3" width="978" height="547.23"/>
      <path class="cls-2" d="M1169,168.05V709.28H197V168.05h972m6-6H191V715.28h984V162.05Z" transform="translate(-191 -162.05)"/>
    </g>
    <g>
      <rect class="cls-3" x="7.5" y="7.45" width="192" height="539"/>
      <path class="cls-2" d="M389,171V707H200V171H389m3-3H197V710H392V168Z" transform="translate(-191 -162.05)"/>
    </g>
  </g>
  <g id="water">
    <path class="cls-4" d="M391.47,282.71c40.71,15.48,72.76,16.18,94.53,13.94,33.22-3.41,39.91-13.39,72.35-12.77,40.28.77,45.11,16.43,79.64,14.13,33.55-2.25,39.54-17.75,70.25-22.47,37.75-5.81,51.18,27,92.68,24.76,18.34-1,14.5-6.34,38.61-10.2,43.93-7,56.29,9.42,96.41,4.21,33-4.3,28.26-15.9,55.41-16.89,35.4-1.29,40,18.56,86.7,22.68,33.6,3,54.45-5.26,61.48-8.32a117.52,117.52,0,0,0,29.57-18.72l.43,436L392,708.23Z" transform="translate(-191 -162.05)"/>
  </g>
  <g id="seafloor">
    <path class="cls-5" d="M393,676a79.28,79.28,0,0,1,34.91-6c11.79.75,13.52,3.74,27.93,6,18.53,2.91,21.61-1.1,45.88,0,22.34,1,21.07,4.46,36.9,4,22.94-.67,24-7.88,42.89-8,21.6-.14,22.39,9.28,49.88,12,15.55,1.54,28.63-.15,42.89-2,23-3,23.35-6,36.9-6,20.05.06,23.66,6.77,42.89,8,18.4,1.18,24.53-4.36,44.88-8,22.39-4,28.12.33,64.84,2a568.58,568.58,0,0,0,93.75-4c38.55-5,39.28-9.68,62.84-9,33.12,1,35.92,10.41,61.84,7,22.56-3,31.26-11.54,55.86-11a107.26,107.26,0,0,1,29.92,5l1,43H393Z" transform="translate(-191 -162.05)"/>
    <circle class="cls-6" cx="249.17" cy="536.77" r="2.14"/>
    <circle class="cls-6" cx="505.15" cy="531.18" r="2.14"/>
    <circle class="cls-6" cx="695.73" cy="540.61" r="1.27"/>
    <circle class="cls-6" cx="230.82" cy="519.8" r="2.82"/>
    <circle class="cls-6" cx="308.32" cy="526.06" r="2.82"/>
    <circle class="cls-6" cx="352.72" cy="534.13" r="2.82"/>
    <circle class="cls-6" cx="386.93" cy="532.74" r="1.67"/>
    <circle class="cls-6" cx="447.52" cy="537.1" r="2.82"/>
    <circle class="cls-6" cx="782.32" cy="539.06" r="2.82"/>
    <circle class="cls-6" cx="876.93" cy="536.74" r="1.67"/>
    <circle class="cls-6" cx="830.52" cy="534.1" r="2.82"/>
    <circle class="cls-6" cx="730.28" cy="528.1" r="2.82"/>
    <circle class="cls-6" cx="927.85" cy="533.7" r="2.82"/>
    <circle class="cls-6" cx="617.97" cy="532.28" r="1.67"/>
    <circle class="cls-6" cx="957.28" cy="513.61" r="1.67"/>
    <circle class="cls-6" cx="656.95" cy="531.1" r="2.82"/>
    <circle class="cls-6" cx="591.73" cy="528.61" r="1.27"/>
    <circle class="cls-6" cx="550.97" cy="532.28" r="1.67"/>
    <circle class="cls-6" cx="577.95" cy="539.1" r="2.82"/>
    <circle class="cls-6" cx="795.97" cy="522.08" r="2.14"/>
  </g>
  <g id="bottle">
    <g>
      <path class="cls-7" d="M619.68,253.49s5.18,8.33,2.28,14.11l-2.54,11.87s-.78,3-2.4,4.26c0,0-2.22,2.53-1.56,4.76,0,0-.88,1.87-.26,2.09,0,0-.08,2.58-.53,2.92,0,0-.67,1.62-.18,1.74,0,0,.16,2.48-.88,3.43,0,0-1.27,1.63-.6,1.94,0,0-.85,6.55-5,6.91a7.7,7.7,0,0,1-7.55-.71s-4.78-1.12-5.29-3.09c0,0-2.47-5.62.88-9.51,0,0-.67-3.5,1.24-4.69,0,0,1.66-4.58,2.28-4.36,0,0,1.37-2.06.38-7.07,0,0-.27-3,.48-4.31l2.54-11.2s1.52-7.81,9-10.89l.39-2h0a1,1,0,0,1-.55-1.32,32.15,32.15,0,0,0,1.58-4.88A.57.57,0,0,1,614,243c1.69.17,6.11.86,8,3.37a39.13,39.13,0,0,0-.75,4.18,1,1,0,0,1-1,.89h0Z" transform="translate(-191 -162.05)"/>
      <path class="cls-8" d="M603,262.58s15.64,6.09,19,5l-2.54,11.87s-14.32-1.92-19-5.69Z" transform="translate(-191 -162.05)"/>
    </g>
    <g>
      <path class="cls-7" d="M686,300s-9.74,1.22-13.77-3.84l-9.72-7.28s-2.4-2-2.86-4c0,0-1.36-3.07-3.67-3.4,0,0-1.33-1.58-1.79-1.11,0,0-2.31-1.15-2.43-1.71,0,0-1.19-1.29-1.5-.89,0,0-2.32-.89-2.75-2.23,0,0-.95-1.84-1.51-1.36,0,0-5.59-3.52-4.18-7.45a7.75,7.75,0,0,1,3.82-6.56s3-3.88,5-3.51c0,0,6.14.11,8.27,4.78,0,0,3.45.86,3.73,3.09,0,0,3.47,3.43,3,3.9,0,0,1.3,2.1,6.26,3.31,0,0,2.83,1,3.71,2.24l9.11,7s6.45,4.65,6.12,12.72l1.65,1.19h0a1,1,0,0,1,1.42.05,32.15,32.15,0,0,0,3.77,3.49.55.55,0,0,1,.18.76c-.86,1.47-3.33,5.19-6.38,5.82a39.1,39.1,0,0,0-3.49-2.43,1,1,0,0,1-.38-1.3h0Z" transform="translate(-191 -162.05)"/>
      <path class="cls-8" d="M684.76,281s-12.08,11.66-12.52,15.16l-9.72-7.28s7.75-12.19,13.13-14.87Z" transform="translate(-191 -162.05)"/>
    </g>
    <g>
      <path class="cls-7" d="M776.37,274.42s-3.24,9.26-9.57,10.62L756,290.5s-2.83,1.28-4.83.8c0,0-3.35-.15-4.68,1.77,0,0-2,.49-1.79,1.11,0,0-2.06,1.55-2.61,1.41,0,0-1.68.49-1.47,1,0,0-1.83,1.68-3.22,1.47,0,0-2.07,0-1.88.75,0,0-5.65,3.44-8.54.42a7.7,7.7,0,0,1-4.17-6.33s-2.13-4.43-.91-6.06c0,0,2.82-5.45,8-5.28,0,0,2.3-2.71,4.43-2,0,0,4.61-1.58,4.83-1,0,0,2.46-.22,5.75-4.13,0,0,2.16-2.09,3.65-2.32l10.32-5.05s7-3.71,14.12.18l1.79-.94h0a1,1,0,0,1,.68-1.26,31,31,0,0,0,4.8-1.83.58.58,0,0,1,.77.19c.93,1.42,3.16,5.29,2.37,8.3a40.72,40.72,0,0,0-3.73,2,1,1,0,0,1-1.34-.23h0Z" transform="translate(-191 -162.05)"/>
      <path class="cls-8" d="M758.8,267.08s5.06,16,8,18L756,290.5s-7.47-12.36-7.48-18.37Z" transform="translate(-191 -162.05)"/>
    </g>
    <g>
      <path class="cls-7" d="M467.37,258.34s9.75,1,12.52,6.88l7.8,9.31s1.9,2.46,1.88,4.52c0,0,.63,3.3,2.8,4.15,0,0,.93,1.84,1.48,1.49,0,0,2,1.65,2,2.21,0,0,.86,1.53,1.26,1.22,0,0,2.06,1.4,2.17,2.79,0,0,.5,2,1.16,1.67,0,0,4.63,4.71,2.36,8.21a7.71,7.71,0,0,1-5.21,5.51s-3.82,3.09-5.69,2.28c0,0-5.95-1.51-7-6.55,0,0-3.17-1.62-2.93-3.86,0,0-2.59-4.12-2-4.48,0,0-.78-2.34-5.34-4.65,0,0-2.52-1.63-3.09-3l-7.28-8.89s-5.22-6-3.05-13.78l-1.33-1.53h0a1,1,0,0,1-1.38-.38,31,31,0,0,0-2.88-4.25.56.56,0,0,1,0-.79c1.17-1.23,4.42-4.29,7.54-4.21a38.73,38.73,0,0,0,2.84,3.17,1,1,0,0,1,.08,1.35h0Z" transform="translate(-191 -162.05)"/>
      <path class="cls-8" d="M464.24,277.12s14.43-8.59,15.65-11.9l7.8,9.31s-10.32,10.1-16.17,11.48Z" transform="translate(-191 -162.05)"/>
    </g>
    <g>
      <path class="cls-7" d="M517.21,275.15s7.86-7.21,14.62-5.27l13.19.33s3.37.23,5,1.71c0,0,3.14,1.87,5.39.71,0,0,2.18.56,2.29-.14,0,0,2.77-.43,3.22,0,0,0,1.87.4,1.9-.15,0,0,2.62-.68,3.84.24,0,0,2,1,2.19.25,0,0,7.17-.4,8.4,4A8.39,8.39,0,0,1,578,285s-.23,5.34-2.24,6.27c0,0-5.51,3.78-10.34,1,0,0-3.6,1.42-5.25-.38,0,0-5.23-.85-5.13-1.56,0,0-2.47-1.05-7.63,1,0,0-3.14.89-4.69.35l-12.48-.46s-8.65-.06-13.44-7.42l-2.2,0h0a1.11,1.11,0,0,1-1.3.85,35.17,35.17,0,0,0-5.54-.71.61.61,0,0,1-.64-.57c-.16-1.83-.31-6.69,2-9.17a42.51,42.51,0,0,0,4.62,0,1.08,1.08,0,0,1,1.16.91h0Z" transform="translate(-191 -162.05)"/>
      <path class="cls-8" d="M530.28,291.2s3.37-17.94,1.55-21.32l13.19.33s.82,15.68-2.26,21.45Z" transform="translate(-191 -162.05)"/>
    </g>
  </g>
</svg>
